<svg width="280" height="254" viewBox="0 0 280 254" fill="none" xmlns="http://www.w3.org/2000/svg">
<g opacity="0.9">
<rect width="280" height="280" rx="140" fill="#9947BC"/>
<path d="M85.0379 30.071C85.2778 30.071 85.4751 29.8742 85.4751 29.6325C85.4751 29.3883 85.2778 29.1915 85.0379 29.1915C84.7931 29.1915 84.5957 29.3883 84.5957 29.6325C84.5957 29.8742 84.7931 30.071 85.0379 30.071Z" fill="white"/>
<path d="M98.6667 30.071C99.1552 30.071 99.5461 29.8742 99.5461 29.6312C99.5461 29.3883 99.1552 29.1915 98.6667 29.1915C98.1807 29.1915 97.7872 29.3883 97.7872 29.6312C97.7872 29.8742 98.1807 30.071 98.6667 30.071Z" fill="white"/>
<path d="M112.738 30.9504C113.225 30.9504 113.617 30.557 113.617 30.072C113.617 29.5849 113.225 29.1915 112.738 29.1915C112.252 29.1915 111.858 29.5849 111.858 30.072C111.858 30.557 112.252 30.9504 112.738 30.9504Z" fill="white"/>
<path d="M125.931 30.9504C126.415 30.9504 126.809 30.5569 126.809 30.0719C126.809 29.585 126.415 29.1915 125.931 29.1915C125.443 29.1915 125.05 29.585 125.05 30.0719C125.05 30.5569 125.443 30.9504 125.931 30.9504Z" fill="white"/>
<path d="M140 30.9503C140.485 30.9503 140.879 30.36 140.879 29.6325C140.879 28.9023 140.485 28.312 140 28.312C139.515 28.312 139.121 28.9023 139.121 29.6325C139.121 30.36 139.515 30.9503 140 30.9503Z" fill="white"/>
<path d="M153.631 30.9504C154.361 30.9504 154.95 30.5569 154.95 30.0719C154.95 29.585 154.361 29.1915 153.631 29.1915C152.904 29.1915 152.312 29.585 152.312 30.0719C152.312 30.5569 152.904 30.9504 153.631 30.9504Z" fill="white"/>
<path d="M167.261 30.9504C167.746 30.9504 168.142 30.557 168.142 30.072C168.142 29.5849 167.746 29.1915 167.261 29.1915C166.778 29.1915 166.383 29.5849 166.383 30.072C166.383 30.557 166.778 30.9504 167.261 30.9504Z" fill="white"/>
<path d="M180.894 30.071C181.137 30.071 181.333 29.8742 181.333 29.6312C181.333 29.3883 181.137 29.1915 180.894 29.1915C180.652 29.1915 180.454 29.3883 180.454 29.6312C180.454 29.8742 180.652 30.071 180.894 30.071Z" fill="white"/>
<path d="M194.967 30.071C195.207 30.071 195.404 29.8753 195.404 29.6324C195.404 29.3872 195.207 29.1915 194.967 29.1915C194.722 29.1915 194.525 29.3872 194.525 29.6324C194.525 29.8753 194.722 30.071 194.967 30.071Z" fill="white"/>
<path d="M70.9646 44.1419C71.2069 44.1419 71.4043 43.9456 71.4043 43.7029C71.4043 43.4587 71.2069 43.2625 70.9646 43.2625C70.7223 43.2625 70.5249 43.4587 70.5249 43.7029C70.5249 43.9456 70.7223 44.1419 70.9646 44.1419Z" fill="white"/>
<path d="M84.5975 44.1418C85.0821 44.1418 85.4752 43.7469 85.4752 43.2624C85.4752 42.776 85.0821 42.3829 84.5975 42.3829C84.1112 42.3829 83.7163 42.776 83.7163 43.2624C83.7163 43.7469 84.1112 44.1418 84.5975 44.1418Z" fill="white"/>
<path d="M98.2279 45.0212C98.9563 45.0212 99.546 44.4315 99.546 43.7031C99.546 42.9747 98.9563 42.3829 98.2279 42.3829C97.4994 42.3829 96.9077 42.9747 96.9077 43.7031C96.9077 44.4315 97.4994 45.0212 98.2279 45.0212Z" fill="white"/>
<path d="M112.297 45.0212C113.025 45.0212 113.617 44.4311 113.617 43.7029C113.617 42.9748 113.025 42.3829 112.297 42.3829C111.569 42.3829 110.979 42.9748 110.979 43.7029C110.979 44.4311 111.569 45.0212 112.297 45.0212Z" fill="white"/>
<path d="M125.931 45.0213C126.903 45.0213 127.688 44.2342 127.688 43.2634C127.688 42.2906 126.903 41.5035 125.931 41.5035C124.958 41.5035 124.17 42.2906 124.17 43.2634C124.17 44.2342 124.958 45.0213 125.931 45.0213Z" fill="white"/>
<path d="M140 45.0213C140.973 45.0213 141.759 44.2341 141.759 43.2634C141.759 42.2907 140.973 41.5035 140 41.5035C139.029 41.5035 138.241 42.2907 138.241 43.2634C138.241 44.2341 139.029 45.0213 140 45.0213Z" fill="white"/>
<path d="M153.63 45.0213C154.358 45.0213 154.95 44.2342 154.95 43.2634C154.95 42.2906 154.358 41.5035 153.63 41.5035C152.902 41.5035 152.312 42.2906 152.312 43.2634C152.312 44.2342 152.902 45.0213 153.63 45.0213Z" fill="white"/>
<path d="M167.261 45.0212C168.234 45.0212 169.021 44.4311 169.021 43.7029C169.021 42.9748 168.234 42.3829 167.261 42.3829C166.29 42.3829 165.504 42.9748 165.504 43.7029C165.504 44.4311 166.29 45.0212 167.261 45.0212Z" fill="white"/>
<path d="M180.893 45.0212C181.623 45.0212 182.213 44.4315 182.213 43.7031C182.213 42.9747 181.623 42.3829 180.893 42.3829C180.164 42.3829 179.574 42.9747 179.574 43.7031C179.574 44.4315 180.164 45.0212 180.893 45.0212Z" fill="white"/>
<path d="M194.527 44.1418C195.012 44.1418 195.404 43.7483 195.404 43.2632C195.404 42.7765 195.012 42.3829 194.527 42.3829C194.038 42.3829 193.645 42.7765 193.645 43.2632C193.645 43.7483 194.038 44.1418 194.527 44.1418Z" fill="white"/>
<path d="M208.597 44.1419C209.082 44.1419 209.475 43.9455 209.475 43.7029C209.475 43.4602 209.082 43.2625 208.597 43.2625C208.112 43.2625 207.716 43.4602 207.716 43.7029C207.716 43.9455 208.112 44.1419 208.597 44.1419Z" fill="white"/>
<path d="M57.3321 58.2127C57.8173 58.2127 58.2128 57.8172 58.2128 57.332C58.2128 56.8494 57.8173 56.4539 57.3321 56.4539C56.8469 56.4539 56.454 56.8494 56.454 57.332C56.454 57.8172 56.8469 58.2127 57.3321 58.2127Z" fill="white"/>
<path d="M70.9634 58.2127C71.692 58.2127 72.2837 57.8179 72.2837 57.3317C72.2837 56.8471 71.692 56.4539 70.9634 56.4539C70.2371 56.4539 69.6454 56.8471 69.6454 57.3317C69.6454 57.8179 70.2371 58.2127 70.9634 58.2127Z" fill="white"/>
<path d="M85.0371 59.0922C85.764 59.0922 86.3546 58.3047 86.3546 57.3311C86.3546 56.3619 85.764 55.5745 85.0371 55.5745C84.3069 55.5745 83.7163 56.3619 83.7163 57.3311C83.7163 58.3047 84.3069 59.0922 85.0371 59.0922Z" fill="white"/>
<path d="M98.6657 59.0922C99.6362 59.0922 100.425 58.3048 100.425 57.3324C100.425 56.3619 99.6362 55.5745 98.6657 55.5745C97.6951 55.5745 96.9077 56.3619 96.9077 57.3324C96.9077 58.3048 97.6951 59.0922 98.6657 59.0922Z" fill="white"/>
<path d="M112.297 59.0922C113.513 59.0922 114.496 58.1086 114.496 56.8926C114.496 55.6787 113.513 54.6951 112.297 54.6951C111.083 54.6951 110.099 55.6787 110.099 56.8926C110.099 58.1086 111.083 59.0922 112.297 59.0922Z" fill="white"/>
<path d="M126.371 59.0922C127.582 59.0922 128.567 58.1084 128.567 56.8927C128.567 55.6789 127.582 54.6951 126.371 54.6951C125.156 54.6951 124.17 55.6789 124.17 56.8927C124.17 58.1084 125.156 59.0922 126.371 59.0922Z" fill="white"/>
<path d="M140 59.9717C141.457 59.9717 142.638 58.7904 142.638 57.3312C142.638 55.8742 141.457 54.6951 140 54.6951C138.543 54.6951 137.362 55.8742 137.362 57.3312C137.362 58.7904 138.543 59.9717 140 59.9717Z" fill="white"/>
<path d="M153.63 59.0922C154.846 59.0922 155.83 58.1084 155.83 56.8927C155.83 55.6789 154.846 54.6951 153.63 54.6951C152.416 54.6951 151.433 55.6789 151.433 56.8927C151.433 58.1084 152.416 59.0922 153.63 59.0922Z" fill="white"/>
<path d="M167.701 59.0922C168.915 59.0922 169.901 58.1086 169.901 56.8926C169.901 55.6787 168.915 54.6951 167.701 54.6951C166.487 54.6951 165.504 55.6787 165.504 56.8926C165.504 58.1086 166.487 59.0922 167.701 59.0922Z" fill="white"/>
<path d="M181.333 59.0922C182.306 59.0922 183.092 58.3048 183.092 57.3324C183.092 56.3619 182.306 55.5745 181.333 55.5745C180.362 55.5745 179.574 56.3619 179.574 57.3324C179.574 58.3048 180.362 59.0922 181.333 59.0922Z" fill="white"/>
<path d="M194.966 59.0922C195.694 59.0922 196.284 58.3042 196.284 57.3322C196.284 56.3625 195.694 55.5745 194.966 55.5745C194.235 55.5745 193.645 56.3625 193.645 57.3322C193.645 58.3042 194.235 59.0922 194.966 59.0922Z" fill="white"/>
<path d="M208.596 58.2127C209.081 58.2127 209.475 57.819 209.475 57.3326C209.475 56.8476 209.081 56.4539 208.596 56.4539C208.112 56.4539 207.716 56.8476 207.716 57.3326C207.716 57.819 208.112 58.2127 208.596 58.2127Z" fill="white"/>
<path d="M222.227 58.2127C222.469 58.2127 222.667 57.8185 222.667 57.3321C222.667 56.8481 222.469 56.4539 222.227 56.4539C221.983 56.4539 221.787 56.8481 221.787 57.3321C221.787 57.8185 221.983 58.2127 222.227 58.2127Z" fill="white"/>
<path d="M43.7022 71.4042C43.9445 71.4042 44.1419 71.2068 44.1419 70.9645C44.1419 70.7207 43.9445 70.5248 43.7022 70.5248C43.4599 70.5248 43.2625 70.7207 43.2625 70.9645C43.2625 71.2068 43.4599 71.4042 43.7022 71.4042Z" fill="white"/>
<path d="M57.3342 72.2837C57.8199 72.2837 58.2128 71.692 58.2128 70.9657C58.2128 70.2371 57.8199 69.6454 57.3342 69.6454C56.8484 69.6454 56.454 70.2371 56.454 70.9657C56.454 71.692 56.8484 72.2837 57.3342 72.2837Z" fill="white"/>
<path d="M70.9645 72.2837C71.6938 72.2837 72.2837 71.6922 72.2837 70.9645C72.2837 70.2352 71.6938 69.6454 70.9645 69.6454C70.2368 69.6454 69.6454 70.2352 69.6454 70.9645C69.6454 71.6922 70.2368 72.2837 70.9645 72.2837Z" fill="white"/>
<path d="M85.0375 73.1632C86.251 73.1632 87.234 72.1786 87.234 70.9656C87.234 69.7505 86.251 68.766 85.0375 68.766C83.8218 68.766 82.8368 69.7505 82.8368 70.9656C82.8368 72.1786 83.8218 73.1632 85.0375 73.1632Z" fill="white"/>
<path d="M98.6656 73.1632C100.123 73.1632 101.305 72.1782 101.305 70.9655C101.305 69.7509 100.123 68.766 98.6656 68.766C97.2102 68.766 96.0283 69.7509 96.0283 70.9655C96.0283 72.1782 97.2102 73.1632 98.6656 73.1632Z" fill="white"/>
<path d="M112.298 74.0425C113.999 74.0425 115.376 72.6655 115.376 70.9656C115.376 69.2635 113.999 67.8865 112.298 67.8865C110.599 67.8865 109.22 69.2635 109.22 70.9656C109.22 72.6655 110.599 74.0425 112.298 74.0425Z" fill="white"/>
<path d="M126.371 74.0425C128.07 74.0425 129.447 72.6636 129.447 70.9645C129.447 69.2633 128.07 67.8865 126.371 67.8865C124.67 67.8865 123.291 69.2633 123.291 70.9645C123.291 72.6636 124.67 74.0425 126.371 74.0425Z" fill="white"/>
<path d="M139.56 74.0425C141.262 74.0425 142.638 72.665 142.638 70.9655C142.638 69.266 141.262 67.8865 139.56 67.8865C137.862 67.8865 136.482 69.266 136.482 70.9655C136.482 72.665 137.862 74.0425 139.56 74.0425Z" fill="white"/>
<path d="M153.63 74.0425C155.33 74.0425 156.709 72.6636 156.709 70.9645C156.709 69.2633 155.33 67.8865 153.63 67.8865C151.931 67.8865 150.553 69.2633 150.553 70.9645C150.553 72.6636 151.931 74.0425 153.63 74.0425Z" fill="white"/>
<path d="M167.262 74.0425C168.719 74.0425 169.901 72.6654 169.901 70.9656C169.901 69.2657 168.719 67.8865 167.262 67.8865C165.806 67.8865 164.624 69.2657 164.624 70.9656C164.624 72.6654 165.806 74.0425 167.262 74.0425Z" fill="white"/>
<path d="M181.332 73.1632C182.789 73.1632 183.972 72.1791 183.972 70.9654C183.972 69.75 182.789 68.766 181.332 68.766C179.876 68.766 178.695 69.75 178.695 70.9654C178.695 72.1791 179.876 73.1632 181.332 73.1632Z" fill="white"/>
<path d="M194.966 73.1632C196.178 73.1632 197.163 72.1797 197.163 70.9656C197.163 69.7515 196.178 68.766 194.966 68.766C193.749 68.766 192.766 69.7515 192.766 70.9656C192.766 72.1797 193.749 73.1632 194.966 73.1632Z" fill="white"/>
<path d="M208.597 72.2837C209.567 72.2837 210.355 71.6933 210.355 70.9653C210.355 70.2358 209.567 69.6454 208.597 69.6454C207.626 69.6454 206.837 70.2358 206.837 70.9653C206.837 71.6933 207.626 72.2837 208.597 72.2837Z" fill="white"/>
<path d="M222.228 72.2837C222.956 72.2837 223.546 71.6931 223.546 70.9656C223.546 70.236 222.956 69.6454 222.228 69.6454C221.498 69.6454 220.908 70.236 220.908 70.9656C220.908 71.6931 221.498 72.2837 222.228 72.2837Z" fill="white"/>
<path d="M236.297 71.4042C236.541 71.4042 236.738 71.2064 236.738 70.9652C236.738 70.7226 236.541 70.5248 236.297 70.5248C236.056 70.5248 235.858 70.7226 235.858 70.9652C235.858 71.2064 236.056 71.4042 236.297 71.4042Z" fill="white"/>
<path d="M29.63 85.4751C29.8741 85.4751 30.071 85.2783 30.071 85.0367C30.071 84.7925 29.8741 84.5957 29.63 84.5957C29.3859 84.5957 29.1915 84.7925 29.1915 85.0367C29.1915 85.2783 29.3859 85.4751 29.63 85.4751Z" fill="white"/>
<path d="M43.2624 85.4752C43.7487 85.4752 44.1418 85.0817 44.1418 84.5966C44.1418 84.1098 43.7487 83.7163 43.2624 83.7163C42.7778 83.7163 42.3829 84.1098 42.3829 84.5966C42.3829 85.0817 42.7778 85.4752 43.2624 85.4752Z" fill="white"/>
<path d="M57.3322 86.3546C58.3042 86.3546 59.0922 85.5667 59.0922 84.5969C59.0922 83.6249 58.3042 82.8369 57.3322 82.8369C56.3602 82.8369 55.5745 83.6249 55.5745 84.5969C55.5745 85.5667 56.3602 86.3546 57.3322 86.3546Z" fill="white"/>
<path d="M70.9635 86.3546C72.1786 86.3546 73.1632 85.5666 73.1632 84.5958C73.1632 83.6232 72.1786 82.8369 70.9635 82.8369C69.7505 82.8369 68.766 83.6232 68.766 84.5958C68.766 85.5666 69.7505 86.3546 70.9635 86.3546Z" fill="white"/>
<path d="M84.5977 87.234C86.0525 87.234 87.234 86.0525 87.234 84.5957C87.234 83.1389 86.0525 81.9574 84.5977 81.9574C83.1389 81.9574 81.9574 83.1389 81.9574 84.5957C81.9574 86.0525 83.1389 87.234 84.5977 87.234Z" fill="white"/>
<path d="M98.6658 88.1134C100.122 88.1134 101.305 86.7359 101.305 85.0364C101.305 83.3369 100.122 81.9574 98.6658 81.9574C97.209 81.9574 96.0283 83.3369 96.0283 85.0364C96.0283 86.7359 97.209 88.1134 98.6658 88.1134Z" fill="white"/>
<path d="M112.297 88.1135C113.996 88.1135 115.376 86.5387 115.376 84.5967C115.376 82.6528 113.996 81.078 112.297 81.078C110.598 81.078 109.22 82.6528 109.22 84.5967C109.22 86.5387 110.598 88.1135 112.297 88.1135Z" fill="white"/>
<path d="M125.931 88.1135C127.871 88.1135 129.447 86.5398 129.447 84.5976C129.447 82.6535 127.871 81.078 125.931 81.078C123.987 81.078 122.411 82.6535 122.411 84.5976C122.411 86.5398 123.987 88.1135 125.931 88.1135Z" fill="white"/>
<path d="M139.999 88.1135C141.943 88.1135 143.518 86.5369 143.518 84.5957C143.518 82.6527 141.943 81.078 139.999 81.078C138.056 81.078 136.482 82.6527 136.482 84.5957C136.482 86.5369 138.056 88.1135 139.999 88.1135Z" fill="white"/>
<path d="M153.631 88.1135C155.818 88.1135 157.589 86.5393 157.589 84.5967C157.589 82.6521 155.818 81.078 153.631 81.078C151.446 81.078 149.674 82.6521 149.674 84.5967C149.674 86.5393 151.446 88.1135 153.631 88.1135Z" fill="white"/>
<path d="M167.262 88.1135C169.207 88.1135 170.78 86.5382 170.78 84.5957C170.78 82.6513 169.207 81.078 167.262 81.078C165.32 81.078 163.745 82.6513 163.745 84.5957C163.745 86.5382 165.32 88.1135 167.262 88.1135Z" fill="white"/>
<path d="M180.893 88.1134C182.593 88.1134 183.972 86.7334 183.972 85.0354C183.972 83.3354 182.593 81.9574 180.893 81.9574C179.192 81.9574 177.816 83.3354 177.816 85.0354C177.816 86.7334 179.192 88.1134 180.893 88.1134Z" fill="white"/>
<path d="M194.526 87.234C195.981 87.234 197.163 86.0539 197.163 84.5967C197.163 83.1394 195.981 81.9574 194.526 81.9574C193.067 81.9574 191.886 83.1394 191.886 84.5967C191.886 86.0539 193.067 87.234 194.526 87.234Z" fill="white"/>
<path d="M208.596 87.2341C209.567 87.2341 210.355 86.2506 210.355 85.0365C210.355 83.8204 209.567 82.8369 208.596 82.8369C207.625 82.8369 206.837 83.8204 206.837 85.0365C206.837 86.2506 207.625 87.2341 208.596 87.2341Z" fill="white"/>
<path d="M222.227 86.3546C222.954 86.3546 223.546 85.5688 223.546 84.5969C223.546 83.625 222.954 82.8369 222.227 82.8369C221.499 82.8369 220.908 83.625 220.908 84.5969C220.908 85.5688 221.499 86.3546 222.227 86.3546Z" fill="white"/>
<path d="M235.856 85.4752C236.345 85.4752 236.738 85.0816 236.738 84.5966C236.738 84.1098 236.345 83.7163 235.856 83.7163C235.371 83.7163 234.979 84.1098 234.979 84.5966C234.979 85.0816 235.371 85.4752 235.856 85.4752Z" fill="white"/>
<path d="M249.489 85.4751C249.732 85.4751 249.929 85.2793 249.929 85.0364C249.929 84.7936 249.732 84.5957 249.489 84.5957C249.247 84.5957 249.05 84.7936 249.05 85.0364C249.05 85.2793 249.247 85.4751 249.489 85.4751Z" fill="white"/>
<path d="M29.6312 98.6667C29.8742 98.6667 30.071 98.4699 30.071 98.2269C30.071 97.9827 29.8742 97.7872 29.6312 97.7872C29.3883 97.7872 29.1915 97.9827 29.1915 98.2269C29.1915 98.4699 29.3883 98.6667 29.6312 98.6667Z" fill="white"/>
<path d="M43.7011 99.5461C44.4315 99.5461 45.0212 98.9549 45.0212 98.227C45.0212 97.4991 44.4315 96.9078 43.7011 96.9078C42.9726 96.9078 42.3829 97.4991 42.3829 98.227C42.3829 98.9549 42.9726 99.5461 43.7011 99.5461Z" fill="white"/>
<path d="M57.3324 100.426C58.3029 100.426 59.0922 99.6377 59.0922 98.6667C59.0922 97.6938 58.3029 96.9078 57.3324 96.9078C56.36 96.9078 55.5745 97.6938 55.5745 98.6667C55.5745 99.6377 56.36 100.426 57.3324 100.426Z" fill="white"/>
<path d="M70.9646 101.305C72.1796 101.305 73.1632 100.123 73.1632 98.6666C73.1632 97.2086 72.1796 96.0283 70.9646 96.0283C69.7513 96.0283 68.766 97.2086 68.766 98.6666C68.766 100.123 69.7513 101.305 70.9646 101.305Z" fill="white"/>
<path d="M85.0374 101.305C86.7355 101.305 88.1134 99.927 88.1134 98.2269C88.1134 96.5269 86.7355 95.1489 85.0374 95.1489C83.3353 95.1489 81.9574 96.5269 81.9574 98.2269C81.9574 99.927 83.3353 101.305 85.0374 101.305Z" fill="white"/>
<path d="M98.6667 102.184C100.61 102.184 102.184 100.609 102.184 98.6676C102.184 96.7238 100.61 95.1489 98.6667 95.1489C96.7254 95.1489 95.1489 96.7238 95.1489 98.6676C95.1489 100.609 96.7254 102.184 98.6667 102.184Z" fill="white"/>
<path d="M112.297 102.184C114.483 102.184 116.255 100.412 116.255 98.228C116.255 96.0419 114.483 94.2695 112.297 94.2695C110.111 94.2695 108.34 96.0419 108.34 98.228C108.34 100.412 110.111 102.184 112.297 102.184Z" fill="white"/>
<path d="M125.93 103.064C128.358 103.064 130.326 101.095 130.326 98.6677C130.326 96.2382 128.358 94.2695 125.93 94.2695C123.501 94.2695 121.532 96.2382 121.532 98.6677C121.532 101.095 123.501 103.064 125.93 103.064Z" fill="white"/>
<path d="M140 103.064C142.429 103.064 144.397 101.095 144.397 98.6677C144.397 96.2383 142.429 94.2695 140 94.2695C137.573 94.2695 135.603 96.2383 135.603 98.6677C135.603 101.095 137.573 103.064 140 103.064Z" fill="white"/>
<path d="M153.631 103.064C155.816 103.064 157.589 101.096 157.589 98.6677C157.589 96.2392 155.816 94.2695 153.631 94.2695C151.446 94.2695 149.674 96.2392 149.674 98.6677C149.674 101.096 151.446 103.064 153.631 103.064Z" fill="white"/>
<path d="M167.702 102.184C169.889 102.184 171.66 100.412 171.66 98.2279C171.66 96.042 169.889 94.2695 167.702 94.2695C165.518 94.2695 163.745 96.042 163.745 98.2279C163.745 100.412 165.518 102.184 167.702 102.184Z" fill="white"/>
<path d="M181.332 102.184C183.276 102.184 184.851 100.609 184.851 98.6676C184.851 96.7239 183.276 95.1489 181.332 95.1489C179.389 95.1489 177.816 96.7239 177.816 98.6676C177.816 100.609 179.389 102.184 181.332 102.184Z" fill="white"/>
<path d="M194.966 101.305C196.664 101.305 198.043 99.9265 198.043 98.2279C198.043 96.5274 196.664 95.1489 194.966 95.1489C193.265 95.1489 191.886 96.5274 191.886 98.2279C191.886 99.9265 193.265 101.305 194.966 101.305Z" fill="white"/>
<path d="M208.597 101.305C210.053 101.305 211.234 100.124 211.234 98.6676C211.234 97.2093 210.053 96.0283 208.597 96.0283C207.141 96.0283 205.958 97.2093 205.958 98.6676C205.958 100.124 207.141 101.305 208.597 101.305Z" fill="white"/>
<path d="M222.229 100.426C223.443 100.426 224.425 99.6377 224.425 98.6667C224.425 97.6957 223.443 96.9078 222.229 96.9078C221.015 96.9078 220.028 97.6957 220.028 98.6667C220.028 99.6377 221.015 100.426 222.229 100.426Z" fill="white"/>
<path d="M236.297 99.5461C237.025 99.5461 237.617 98.9559 237.617 98.227C237.617 97.4961 237.025 96.9078 236.297 96.9078C235.571 96.9078 234.979 97.4961 234.979 98.227C234.979 98.9559 235.571 99.5461 236.297 99.5461Z" fill="white"/>
<path d="M249.93 99.5461C250.417 99.5461 250.809 99.15 250.809 98.6667C250.809 98.1808 250.417 97.7872 249.93 97.7872C249.444 97.7872 249.05 98.1808 249.05 98.6667C249.05 99.15 249.444 99.5461 249.93 99.5461Z" fill="white"/>
<path d="M30.0699 112.738C30.555 112.738 30.9504 112.344 30.9504 111.857C30.9504 111.374 30.555 110.979 30.0699 110.979C29.5849 110.979 29.1915 111.374 29.1915 111.857C29.1915 112.344 29.5849 112.738 30.0699 112.738Z" fill="white"/>
<path d="M43.7021 113.617C44.4307 113.617 45.0212 113.027 45.0212 112.297C45.0212 111.571 44.4307 110.979 43.7021 110.979C42.9734 110.979 42.3829 111.571 42.3829 112.297C42.3829 113.027 42.9734 113.617 43.7021 113.617Z" fill="white"/>
<path d="M57.3333 114.496C58.305 114.496 59.0922 113.513 59.0922 112.297C59.0922 111.085 58.305 110.099 57.3333 110.099C56.3617 110.099 55.5745 111.085 55.5745 112.297C55.5745 113.513 56.3617 114.496 57.3333 114.496Z" fill="white"/>
<path d="M71.4043 115.376C72.8609 115.376 74.0426 113.997 74.0426 112.296C74.0426 110.596 72.8609 109.22 71.4043 109.22C69.9477 109.22 68.766 110.596 68.766 112.296C68.766 113.997 69.9477 115.376 71.4043 115.376Z" fill="white"/>
<path d="M84.5969 115.376C86.5388 115.376 88.1136 113.998 88.1136 112.297C88.1136 110.598 86.5388 109.22 84.5969 109.22C82.6509 109.22 81.0781 110.598 81.0781 112.297C81.0781 113.998 82.6509 115.376 84.5969 115.376Z" fill="white"/>
<path d="M98.2278 116.255C100.414 116.255 102.184 114.483 102.184 112.297C102.184 110.113 100.414 108.34 98.2278 108.34C96.0437 108.34 94.2694 110.113 94.2694 112.297C94.2694 114.483 96.0437 116.255 98.2278 116.255Z" fill="white"/>
<path d="M112.298 116.255C114.97 116.255 117.135 114.287 117.135 111.857C117.135 109.429 114.97 107.461 112.298 107.461C109.627 107.461 107.461 109.429 107.461 111.857C107.461 114.287 109.627 116.255 112.298 116.255Z" fill="white"/>
<path d="M126.371 117.135C129.041 117.135 131.206 114.969 131.206 112.297C131.206 109.626 129.041 107.461 126.371 107.461C123.699 107.461 121.532 109.626 121.532 112.297C121.532 114.969 123.699 117.135 126.371 117.135Z" fill="white"/>
<path d="M140 117.135C142.915 117.135 145.277 114.969 145.277 112.297C145.277 109.626 142.915 107.461 140 107.461C137.085 107.461 134.723 109.626 134.723 112.297C134.723 114.969 137.085 117.135 140 117.135Z" fill="white"/>
<path d="M153.631 117.135C156.302 117.135 158.468 114.969 158.468 112.297C158.468 109.626 156.302 107.461 153.631 107.461C150.96 107.461 148.794 109.626 148.794 112.297C148.794 114.969 150.96 117.135 153.631 117.135Z" fill="white"/>
<path d="M167.263 117.135C169.692 117.135 171.66 114.97 171.66 112.297C171.66 109.628 169.692 107.461 167.263 107.461C164.837 107.461 162.865 109.628 162.865 112.297C162.865 114.97 164.837 117.135 167.263 117.135Z" fill="white"/>
<path d="M180.893 116.255C183.08 116.255 184.851 114.484 184.851 112.297C184.851 110.112 183.08 108.34 180.893 108.34C178.708 108.34 176.936 110.112 176.936 112.297C176.936 114.484 178.708 116.255 180.893 116.255Z" fill="white"/>
<path d="M194.526 115.376C196.467 115.376 198.043 113.802 198.043 111.857C198.043 109.914 196.467 108.34 194.526 108.34C192.581 108.34 191.007 109.914 191.007 111.857C191.007 113.802 192.581 115.376 194.526 115.376Z" fill="white"/>
<path d="M208.598 115.376C210.054 115.376 211.234 113.999 211.234 112.297C211.234 110.597 210.054 109.22 208.598 109.22C207.139 109.22 205.958 110.597 205.958 112.297C205.958 113.999 207.139 115.376 208.598 115.376Z" fill="white"/>
<path d="M222.227 114.496C223.441 114.496 224.425 113.512 224.425 112.296C224.425 111.083 223.441 110.099 222.227 110.099C221.012 110.099 220.028 111.083 220.028 112.296C220.028 113.512 221.012 114.496 222.227 114.496Z" fill="white"/>
<path d="M235.856 113.617C236.831 113.617 237.617 113.026 237.617 112.297C237.617 111.57 236.831 110.979 235.856 110.979C234.886 110.979 234.099 111.57 234.099 112.297C234.099 113.026 234.886 113.617 235.856 113.617Z" fill="white"/>
<path d="M249.929 112.738C250.415 112.738 250.809 112.343 250.809 111.857C250.809 111.373 250.415 110.979 249.929 110.979C249.444 110.979 249.05 111.373 249.05 111.857C249.05 112.343 249.444 112.738 249.929 112.738Z" fill="white"/>
<path d="M263.56 112.738C263.799 112.738 264 112.543 264 112.296C264 112.056 263.799 111.858 263.56 111.858C263.321 111.858 263.121 112.056 263.121 112.296C263.121 112.543 263.321 112.738 263.56 112.738Z" fill="white"/>
<path d="M30.0701 126.809C30.5551 126.809 30.9504 126.414 30.9504 125.929C30.9504 125.443 30.5551 125.05 30.0701 125.05C29.5832 125.05 29.1915 125.443 29.1915 125.929C29.1915 126.414 29.5832 126.809 30.0701 126.809Z" fill="white"/>
<path d="M43.7013 127.688C44.4294 127.688 45.0212 126.901 45.0212 125.93C45.0212 124.957 44.4294 124.17 43.7013 124.17C42.9732 124.17 42.3829 124.957 42.3829 125.93C42.3829 126.901 42.9732 127.688 43.7013 127.688Z" fill="white"/>
<path d="M57.3334 128.567C58.7894 128.567 59.9717 127.385 59.9717 125.929C59.9717 124.471 58.7894 123.291 57.3334 123.291C55.8751 123.291 54.6951 124.471 54.6951 125.929C54.6951 127.385 55.8751 128.567 57.3334 128.567Z" fill="white"/>
<path d="M70.9646 128.567C72.6637 128.567 74.0426 127.385 74.0426 125.929C74.0426 124.471 72.6637 123.291 70.9646 123.291C69.2655 123.291 67.8866 124.471 67.8866 125.929C67.8866 127.385 69.2655 128.567 70.9646 128.567Z" fill="white"/>
<path d="M84.5978 129.447C86.5381 129.447 88.1136 127.871 88.1136 125.929C88.1136 123.985 86.5381 122.411 84.5978 122.411C82.6537 122.411 81.0781 123.985 81.0781 125.929C81.0781 127.871 82.6537 129.447 84.5978 129.447Z" fill="white"/>
<path d="M98.6656 130.326C101.093 130.326 103.064 128.357 103.064 125.929C103.064 123.499 101.093 121.532 98.6656 121.532C96.2381 121.532 94.2694 123.499 94.2694 125.929C94.2694 128.357 96.2381 130.326 98.6656 130.326Z" fill="white"/>
<path d="M112.298 131.206C114.968 131.206 117.135 129.039 117.135 126.369C117.135 123.697 114.968 121.532 112.298 121.532C109.626 121.532 107.461 123.697 107.461 126.369C107.461 129.039 109.626 131.206 112.298 131.206Z" fill="white"/>
<path d="M125.931 131.206C128.843 131.206 131.206 128.841 131.206 125.929C131.206 123.015 128.843 120.652 125.931 120.652C123.017 120.652 120.652 123.015 120.652 125.929C120.652 128.841 123.017 131.206 125.931 131.206Z" fill="white"/>
<path d="M139.56 131.206C142.716 131.206 145.277 128.842 145.277 125.929C145.277 123.014 142.716 120.652 139.56 120.652C136.405 120.652 133.844 123.014 133.844 125.929C133.844 128.842 136.405 131.206 139.56 131.206Z" fill="white"/>
<path d="M153.631 131.206C156.788 131.206 159.348 128.841 159.348 125.929C159.348 123.015 156.788 120.652 153.631 120.652C150.474 120.652 147.915 123.015 147.915 125.929C147.915 128.841 150.474 131.206 153.631 131.206Z" fill="white"/>
<path d="M167.701 131.206C170.373 131.206 172.539 128.843 172.539 125.929C172.539 123.013 170.373 120.652 167.701 120.652C165.03 120.652 162.865 123.013 162.865 125.929C162.865 128.843 165.03 131.206 167.701 131.206Z" fill="white"/>
<path d="M181.333 130.326C183.761 130.326 185.73 128.358 185.73 125.93C185.73 123.502 183.761 121.532 181.333 121.532C178.907 121.532 176.936 123.502 176.936 125.93C176.936 128.358 178.907 130.326 181.333 130.326Z" fill="white"/>
<path d="M194.966 129.447C197.151 129.447 198.922 127.871 198.922 125.93C198.922 123.987 197.151 122.411 194.966 122.411C192.78 122.411 191.007 123.987 191.007 125.93C191.007 127.871 192.78 129.447 194.966 129.447Z" fill="white"/>
<path d="M208.598 128.567C210.055 128.567 211.234 127.386 211.234 125.929C211.234 124.472 210.055 123.291 208.598 123.291C207.14 123.291 205.958 124.472 205.958 125.929C205.958 127.386 207.14 128.567 208.598 128.567Z" fill="white"/>
<path d="M222.227 128.567C223.441 128.567 224.425 127.386 224.425 125.929C224.425 124.47 223.441 123.291 222.227 123.291C221.013 123.291 220.028 124.47 220.028 125.929C220.028 127.386 221.013 128.567 222.227 128.567Z" fill="white"/>
<path d="M235.857 127.688C236.83 127.688 237.617 126.9 237.617 125.929C237.617 124.956 236.83 124.17 235.857 124.17C234.888 124.17 234.099 124.956 234.099 125.929C234.099 126.9 234.888 127.688 235.857 127.688Z" fill="white"/>
<path d="M249.93 126.809C250.415 126.809 250.809 126.415 250.809 125.929C250.809 125.442 250.415 125.05 249.93 125.05C249.445 125.05 249.05 125.442 249.05 125.929C249.05 126.415 249.445 126.809 249.93 126.809Z" fill="white"/>
<path d="M16.4422 140C16.6821 140 16.8794 139.803 16.8794 139.562C16.8794 139.317 16.6821 139.121 16.4422 139.121C16.1974 139.121 16 139.317 16 139.562C16 139.803 16.1974 140 16.4422 140Z" fill="white"/>
<path d="M30.071 140.879C30.5555 140.879 30.9504 140.486 30.9504 140.001C30.9504 139.514 30.5555 139.121 30.071 139.121C29.5864 139.121 29.1915 139.514 29.1915 140.001C29.1915 140.486 29.5864 140.879 30.071 140.879Z" fill="white"/>
<path d="M43.2614 141.759C44.2321 141.759 45.0213 140.972 45.0213 140.001C45.0213 139.03 44.2321 138.241 43.2614 138.241C42.2907 138.241 41.5035 139.03 41.5035 140.001C41.5035 140.972 42.2907 141.759 43.2614 141.759Z" fill="white"/>
<path d="M57.3323 141.759C58.7909 141.759 59.9717 140.774 59.9717 139.56C59.9717 138.346 58.7909 137.362 57.3323 137.362C55.8758 137.362 54.6951 138.346 54.6951 139.56C54.6951 140.774 55.8758 141.759 57.3323 141.759Z" fill="white"/>
<path d="M70.9646 142.638C72.6667 142.638 74.0426 141.261 74.0426 139.561C74.0426 137.862 72.6667 136.482 70.9646 136.482C69.2665 136.482 67.8866 137.862 67.8866 139.561C67.8866 141.261 69.2665 142.638 70.9646 142.638Z" fill="white"/>
<path d="M84.5977 143.518C86.5388 143.518 88.1136 141.746 88.1136 139.56C88.1136 137.374 86.5388 135.603 84.5977 135.603C82.6547 135.603 81.0781 137.374 81.0781 139.56C81.0781 141.746 82.6547 143.518 84.5977 143.518Z" fill="white"/>
<path d="M98.6656 144.397C101.095 144.397 103.064 142.429 103.064 140C103.064 137.571 101.095 135.603 98.6656 135.603C96.2381 135.603 94.2694 137.571 94.2694 140C94.2694 142.429 96.2381 144.397 98.6656 144.397Z" fill="white"/>
<path d="M112.298 144.397C114.97 144.397 117.135 142.232 117.135 139.561C117.135 136.889 114.97 134.723 112.298 134.723C109.628 134.723 107.461 136.889 107.461 139.561C107.461 142.232 109.628 144.397 112.298 144.397Z" fill="white"/>
<path d="M126.37 145.277C129.526 145.277 132.085 142.716 132.085 139.56C132.085 136.403 129.526 133.844 126.37 133.844C123.21 133.844 120.652 136.403 120.652 139.56C120.652 142.716 123.21 145.277 126.37 145.277Z" fill="white"/>
<path d="M140 146.156C143.399 146.156 146.156 143.399 146.156 140.001C146.156 136.601 143.399 133.844 140 133.844C136.601 133.844 133.844 136.601 133.844 140.001C133.844 143.399 136.601 146.156 140 146.156Z" fill="white"/>
<path d="M153.63 145.277C156.788 145.277 159.348 142.717 159.348 139.561C159.348 136.403 156.788 133.844 153.63 133.844C150.472 133.844 147.915 136.403 147.915 139.561C147.915 142.717 150.472 145.277 153.63 145.277Z" fill="white"/>
<path d="M167.263 144.397C170.177 144.397 172.539 142.232 172.539 139.561C172.539 136.889 170.177 134.723 167.263 134.723C164.348 134.723 161.986 136.889 161.986 139.561C161.986 142.232 164.348 144.397 167.263 144.397Z" fill="white"/>
<path d="M181.332 144.397C183.762 144.397 185.73 142.428 185.73 140.001C185.73 137.572 183.762 135.603 181.332 135.603C178.903 135.603 176.936 137.572 176.936 140.001C176.936 142.428 178.903 144.397 181.332 144.397Z" fill="white"/>
<path d="M194.966 143.518C197.15 143.518 198.922 141.746 198.922 139.561C198.922 137.375 197.15 135.603 194.966 135.603C192.777 135.603 191.007 137.375 191.007 139.561C191.007 141.746 192.777 143.518 194.966 143.518Z" fill="white"/>
<path d="M208.597 142.638C210.538 142.638 212.113 141.26 212.113 139.561C212.113 137.861 210.538 136.482 208.597 136.482C206.656 136.482 205.078 137.861 205.078 139.561C205.078 141.26 206.656 142.638 208.597 142.638Z" fill="white"/>
<path d="M222.227 141.759C223.442 141.759 224.425 140.774 224.425 139.561C224.425 138.347 223.442 137.362 222.227 137.362C221.012 137.362 220.028 138.347 220.028 139.561C220.028 140.774 221.012 141.759 222.227 141.759Z" fill="white"/>
<path d="M235.856 141.759C236.827 141.759 237.617 140.971 237.617 140.001C237.617 139.029 236.827 138.241 235.856 138.241C234.887 138.241 234.099 139.029 234.099 140.001C234.099 140.971 234.887 141.759 235.856 141.759Z" fill="white"/>
<path d="M249.929 140.879C250.413 140.879 250.809 140.286 250.809 139.56C250.809 138.832 250.413 138.241 249.929 138.241C249.444 138.241 249.05 138.832 249.05 139.56C249.05 140.286 249.444 140.879 249.929 140.879Z" fill="white"/>
<path d="M263.56 140C263.805 140 264 139.804 264 139.561C264 139.319 263.805 139.121 263.56 139.121C263.318 139.121 263.121 139.319 263.121 139.561C263.121 139.804 263.318 140 263.56 140Z" fill="white"/>
<path d="M30.0701 154.071C30.5551 154.071 30.9504 153.677 30.9504 153.192C30.9504 152.705 30.5551 152.312 30.0701 152.312C29.5832 152.312 29.1915 152.705 29.1915 153.192C29.1915 153.677 29.5832 154.071 30.0701 154.071Z" fill="white"/>
<path d="M43.7013 154.95C44.4294 154.95 45.0212 154.163 45.0212 153.193C45.0212 152.22 44.4294 151.433 43.7013 151.433C42.9732 151.433 42.3829 152.22 42.3829 153.193C42.3829 154.163 42.9732 154.95 43.7013 154.95Z" fill="white"/>
<path d="M57.3334 155.83C58.7894 155.83 59.9717 154.846 59.9717 153.632C59.9717 152.416 58.7894 151.433 57.3334 151.433C55.8751 151.433 54.6951 152.416 54.6951 153.632C54.6951 154.846 55.8751 155.83 57.3334 155.83Z" fill="white"/>
<path d="M70.9646 156.709C72.6637 156.709 74.0426 155.332 74.0426 153.632C74.0426 151.931 72.6637 150.553 70.9646 150.553C69.2655 150.553 67.8866 151.931 67.8866 153.632C67.8866 155.332 69.2655 156.709 70.9646 156.709Z" fill="white"/>
<path d="M84.5977 156.709C86.5399 156.709 88.1136 155.135 88.1136 153.192C88.1136 151.248 86.5399 149.674 84.5977 149.674C82.6537 149.674 81.0781 151.248 81.0781 153.192C81.0781 155.135 82.6537 156.709 84.5977 156.709Z" fill="white"/>
<path d="M98.6656 157.589C101.096 157.589 103.064 155.621 103.064 153.192C103.064 150.764 101.096 148.794 98.6656 148.794C96.2371 148.794 94.2694 150.764 94.2694 153.192C94.2694 155.621 96.2371 157.589 98.6656 157.589Z" fill="white"/>
<path d="M112.298 158.468C114.969 158.468 117.135 156.303 117.135 153.632C117.135 150.96 114.969 148.794 112.298 148.794C109.627 148.794 107.461 150.96 107.461 153.632C107.461 156.303 109.627 158.468 112.298 158.468Z" fill="white"/>
<path d="M125.931 158.468C128.843 158.468 131.206 156.107 131.206 153.192C131.206 150.278 128.843 147.915 125.931 147.915C123.017 147.915 120.652 150.278 120.652 153.192C120.652 156.107 123.017 158.468 125.931 158.468Z" fill="white"/>
<path d="M139.559 159.348C142.717 159.348 145.277 156.788 145.277 153.632C145.277 150.474 142.717 147.915 139.559 147.915C136.403 147.915 133.844 150.474 133.844 153.632C133.844 156.788 136.403 159.348 139.559 159.348Z" fill="white"/>
<path d="M153.631 159.348C156.789 159.348 159.348 156.789 159.348 153.632C159.348 150.474 156.789 147.915 153.631 147.915C150.475 147.915 147.915 150.474 147.915 153.632C147.915 156.789 150.475 159.348 153.631 159.348Z" fill="white"/>
<path d="M167.701 158.468C170.373 158.468 172.539 156.304 172.539 153.632C172.539 150.961 170.373 148.794 167.701 148.794C165.03 148.794 162.865 150.961 162.865 153.632C162.865 156.304 165.03 158.468 167.701 158.468Z" fill="white"/>
<path d="M181.333 157.589C183.761 157.589 185.73 155.621 185.73 153.192C185.73 150.762 183.761 148.794 181.333 148.794C178.907 148.794 176.936 150.762 176.936 153.192C176.936 155.621 178.907 157.589 181.333 157.589Z" fill="white"/>
<path d="M194.966 156.709C197.151 156.709 198.922 155.135 198.922 153.192C198.922 151.25 197.151 149.674 194.966 149.674C192.78 149.674 191.007 151.25 191.007 153.192C191.007 155.135 192.78 156.709 194.966 156.709Z" fill="white"/>
<path d="M208.598 156.709C210.055 156.709 211.234 155.332 211.234 153.632C211.234 151.933 210.055 150.553 208.598 150.553C207.14 150.553 205.958 151.933 205.958 153.632C205.958 155.332 207.14 156.709 208.598 156.709Z" fill="white"/>
<path d="M222.227 155.83C223.441 155.83 224.425 154.847 224.425 153.632C224.425 152.417 223.441 151.433 222.227 151.433C221.013 151.433 220.028 152.417 220.028 153.632C220.028 154.847 221.013 155.83 222.227 155.83Z" fill="white"/>
<path d="M235.858 154.95C236.831 154.95 237.617 154.162 237.617 153.192C237.617 152.221 236.831 151.433 235.858 151.433C234.889 151.433 234.099 152.221 234.099 153.192C234.099 154.162 234.889 154.95 235.858 154.95Z" fill="white"/>
<path d="M249.93 154.071C250.415 154.071 250.809 153.677 250.809 153.192C250.809 152.707 250.415 152.312 249.93 152.312C249.445 152.312 249.05 152.707 249.05 153.192C249.05 153.677 249.445 154.071 249.93 154.071Z" fill="white"/>
<path d="M263.559 154.071C263.802 154.071 264 153.875 264 153.632C264 153.387 263.802 153.192 263.559 153.192C263.316 153.192 263.121 153.387 263.121 153.632C263.121 153.875 263.316 154.071 263.559 154.071Z" fill="white"/>
<path d="M30.0699 168.142C30.555 168.142 30.9504 167.748 30.9504 167.262C30.9504 166.777 30.555 166.383 30.0699 166.383C29.5849 166.383 29.1915 166.777 29.1915 167.262C29.1915 167.748 29.5849 168.142 30.0699 168.142Z" fill="white"/>
<path d="M43.7021 169.021C44.4307 169.021 45.0212 168.234 45.0212 167.262C45.0212 166.291 44.4307 165.504 43.7021 165.504C42.9734 165.504 42.3829 166.291 42.3829 167.262C42.3829 168.234 42.9734 169.021 43.7021 169.021Z" fill="white"/>
<path d="M57.3333 169.021C58.305 169.021 59.0922 168.038 59.0922 166.822C59.0922 165.608 58.305 164.624 57.3333 164.624C56.3617 164.624 55.5745 165.608 55.5745 166.822C55.5745 168.038 56.3617 169.021 57.3333 169.021Z" fill="white"/>
<path d="M70.9646 169.901C72.6639 169.901 74.0426 168.719 74.0426 167.262C74.0426 165.806 72.6639 164.624 70.9646 164.624C69.2654 164.624 67.8866 165.806 67.8866 167.262C67.8866 168.719 69.2654 169.901 70.9646 169.901Z" fill="white"/>
<path d="M84.5969 170.78C86.5367 170.78 88.1136 169.205 88.1136 167.262C88.1136 165.32 86.5367 163.745 84.5969 163.745C82.653 163.745 81.0781 165.32 81.0781 167.262C81.0781 169.205 82.653 170.78 84.5969 170.78Z" fill="white"/>
<path d="M98.2269 170.78C100.413 170.78 102.184 169.009 102.184 166.823C102.184 164.638 100.413 162.865 98.2269 162.865C96.0423 162.865 94.2694 164.638 94.2694 166.823C94.2694 169.009 96.0423 170.78 98.2269 170.78Z" fill="white"/>
<path d="M112.297 171.66C114.97 171.66 117.135 169.69 117.135 167.261C117.135 164.833 114.97 162.865 112.297 162.865C109.626 162.865 107.461 164.833 107.461 167.261C107.461 169.69 109.626 171.66 112.297 171.66Z" fill="white"/>
<path d="M126.371 172.539C129.04 172.539 131.206 170.178 131.206 167.262C131.206 164.349 129.04 161.986 126.371 161.986C123.698 161.986 121.532 164.349 121.532 167.262C121.532 170.178 123.698 172.539 126.371 172.539Z" fill="white"/>
<path d="M139.999 172.539C142.914 172.539 145.277 170.177 145.277 167.261C145.277 164.348 142.914 161.986 139.999 161.986C137.086 161.986 134.723 164.348 134.723 167.261C134.723 170.177 137.086 172.539 139.999 172.539Z" fill="white"/>
<path d="M153.631 172.539C156.302 172.539 158.468 170.178 158.468 167.262C158.468 164.349 156.302 161.986 153.631 161.986C150.96 161.986 148.794 164.349 148.794 167.262C148.794 170.178 150.96 172.539 153.631 172.539Z" fill="white"/>
<path d="M167.262 171.66C169.691 171.66 171.66 169.691 171.66 167.262C171.66 164.834 169.691 162.865 167.262 162.865C164.836 162.865 162.865 164.834 162.865 167.262C162.865 169.691 164.836 171.66 167.262 171.66Z" fill="white"/>
<path d="M180.893 170.78C183.08 170.78 184.851 169.009 184.851 166.823C184.851 164.638 183.08 162.865 180.893 162.865C178.708 162.865 176.936 164.638 176.936 166.823C176.936 169.009 178.708 170.78 180.893 170.78Z" fill="white"/>
<path d="M194.526 170.78C196.467 170.78 198.043 169.205 198.043 167.262C198.043 165.32 196.467 163.745 194.526 163.745C192.581 163.745 191.007 165.32 191.007 167.262C191.007 169.205 192.581 170.78 194.526 170.78Z" fill="white"/>
<path d="M208.597 169.901C210.052 169.901 211.234 168.72 211.234 167.262C211.234 165.805 210.052 164.624 208.597 164.624C207.14 164.624 205.958 165.805 205.958 167.262C205.958 168.72 207.14 169.901 208.597 169.901Z" fill="white"/>
<path d="M222.227 169.021C223.441 169.021 224.425 168.037 224.425 166.822C224.425 165.609 223.441 164.624 222.227 164.624C221.013 164.624 220.028 165.609 220.028 166.822C220.028 168.037 221.013 169.021 222.227 169.021Z" fill="white"/>
<path d="M235.856 169.021C236.831 169.021 237.617 168.233 237.617 167.261C237.617 166.289 236.831 165.504 235.856 165.504C234.886 165.504 234.099 166.289 234.099 167.261C234.099 168.233 234.886 169.021 235.856 169.021Z" fill="white"/>
<path d="M249.93 168.142C250.414 168.142 250.809 167.749 250.809 167.262C250.809 166.776 250.414 166.383 249.93 166.383C249.444 166.383 249.05 166.776 249.05 167.262C249.05 167.749 249.444 168.142 249.93 168.142Z" fill="white"/>
<path d="M29.6312 181.333C29.8742 181.333 30.071 181.137 30.071 180.894C30.071 180.651 29.8742 180.454 29.6312 180.454C29.3883 180.454 29.1915 180.651 29.1915 180.894C29.1915 181.137 29.3883 181.333 29.6312 181.333Z" fill="white"/>
<path d="M43.7011 182.213C44.4315 182.213 45.0212 181.621 45.0212 180.894C45.0212 180.166 44.4315 179.574 43.7011 179.574C42.9726 179.574 42.3829 180.166 42.3829 180.894C42.3829 181.621 42.9726 182.213 43.7011 182.213Z" fill="white"/>
<path d="M57.3324 183.092C58.3029 183.092 59.0922 182.11 59.0922 180.894C59.0922 179.68 58.3029 178.695 57.3324 178.695C56.36 178.695 55.5745 179.68 55.5745 180.894C55.5745 182.11 56.36 183.092 57.3324 183.092Z" fill="white"/>
<path d="M70.9637 183.092C72.1774 183.092 73.1632 182.108 73.1632 180.893C73.1632 179.679 72.1774 178.695 70.9637 178.695C69.75 178.695 68.766 179.679 68.766 180.893C68.766 182.108 69.75 183.092 70.9637 183.092Z" fill="white"/>
<path d="M85.0374 183.972C86.7354 183.972 88.1134 182.593 88.1134 180.893C88.1134 179.192 86.7354 177.816 85.0374 177.816C83.3354 177.816 81.9574 179.192 81.9574 180.893C81.9574 182.593 83.3354 183.972 85.0374 183.972Z" fill="white"/>
<path d="M98.6657 184.851C100.609 184.851 102.184 183.276 102.184 181.332C102.184 179.391 100.609 177.816 98.6657 177.816C96.7239 177.816 95.1489 179.391 95.1489 181.332C95.1489 183.276 96.7239 184.851 98.6657 184.851Z" fill="white"/>
<path d="M112.297 184.851C114.484 184.851 116.255 183.08 116.255 180.894C116.255 178.709 114.484 176.936 112.297 176.936C110.112 176.936 108.34 178.709 108.34 180.894C108.34 183.08 110.112 184.851 112.297 184.851Z" fill="white"/>
<path d="M125.93 184.851C128.357 184.851 130.326 183.078 130.326 180.893C130.326 178.707 128.357 176.936 125.93 176.936C123.5 176.936 121.532 178.707 121.532 180.893C121.532 183.078 123.5 184.851 125.93 184.851Z" fill="white"/>
<path d="M139.999 185.73C142.428 185.73 144.397 183.763 144.397 181.333C144.397 178.905 142.428 176.936 139.999 176.936C137.572 176.936 135.603 178.905 135.603 181.333C135.603 183.763 137.572 185.73 139.999 185.73Z" fill="white"/>
<path d="M153.631 184.851C155.817 184.851 157.589 183.078 157.589 180.893C157.589 178.707 155.817 176.936 153.631 176.936C151.445 176.936 149.674 178.707 149.674 180.893C149.674 183.078 151.445 184.851 153.631 184.851Z" fill="white"/>
<path d="M167.702 184.851C169.888 184.851 171.66 183.08 171.66 180.894C171.66 178.709 169.888 176.936 167.702 176.936C165.518 176.936 163.745 178.709 163.745 180.894C163.745 183.08 165.518 184.851 167.702 184.851Z" fill="white"/>
<path d="M181.332 184.851C183.277 184.851 184.851 183.078 184.851 180.893C184.851 178.707 183.277 176.936 181.332 176.936C179.39 176.936 177.816 178.707 177.816 180.893C177.816 183.078 179.39 184.851 181.332 184.851Z" fill="white"/>
<path d="M194.965 183.972C196.664 183.972 198.043 182.595 198.043 180.894C198.043 179.195 196.664 177.816 194.965 177.816C193.265 177.816 191.886 179.195 191.886 180.894C191.886 182.595 193.265 183.972 194.965 183.972Z" fill="white"/>
<path d="M208.596 183.092C210.053 183.092 211.234 182.109 211.234 180.894C211.234 179.68 210.053 178.695 208.596 178.695C207.139 178.695 205.958 179.68 205.958 180.894C205.958 182.109 207.139 183.092 208.596 183.092Z" fill="white"/>
<path d="M222.228 183.092C223.442 183.092 224.425 182.108 224.425 180.894C224.425 179.679 223.442 178.695 222.228 178.695C221.014 178.695 220.028 179.679 220.028 180.894C220.028 182.108 221.014 183.092 222.228 183.092Z" fill="white"/>
<path d="M236.296 182.213C237.025 182.213 237.617 181.622 237.617 180.894C237.617 180.167 237.025 179.574 236.296 179.574C235.569 179.574 234.979 180.167 234.979 180.894C234.979 181.622 235.569 182.213 236.296 182.213Z" fill="white"/>
<path d="M249.929 181.333C250.416 181.333 250.809 181.136 250.809 180.893C250.809 180.65 250.416 180.454 249.929 180.454C249.442 180.454 249.05 180.65 249.05 180.893C249.05 181.136 249.442 181.333 249.929 181.333Z" fill="white"/>
<path d="M263.553 181.333C263.791 181.333 264 181.139 264 180.894C264 180.655 263.791 180.454 263.553 180.454C263.314 180.454 263.121 180.655 263.121 180.894C263.121 181.139 263.314 181.333 263.553 181.333Z" fill="white"/>
<path d="M29.6301 195.404C29.873 195.404 30.071 195.207 30.071 194.964C30.071 194.722 29.873 194.525 29.6301 194.525C29.3872 194.525 29.1915 194.722 29.1915 194.964C29.1915 195.207 29.3872 195.404 29.6301 195.404Z" fill="white"/>
<path d="M43.7008 195.404C44.4309 195.404 45.0212 195.011 45.0212 194.524C45.0212 194.039 44.4309 193.645 43.7008 193.645C42.9733 193.645 42.3829 194.039 42.3829 194.524C42.3829 195.011 42.9733 195.404 43.7008 195.404Z" fill="white"/>
<path d="M57.3333 196.284C58.3058 196.284 59.0922 195.496 59.0922 194.524C59.0922 193.554 58.3058 192.766 57.3333 192.766C56.3608 192.766 55.5745 193.554 55.5745 194.524C55.5745 195.496 56.3608 196.284 57.3333 196.284Z" fill="white"/>
<path d="M70.9646 197.163C72.1801 197.163 73.1632 196.18 73.1632 194.965C73.1632 193.751 72.1801 192.766 70.9646 192.766C69.7511 192.766 68.766 193.751 68.766 194.965C68.766 196.18 69.7511 197.163 70.9646 197.163Z" fill="white"/>
<path d="M84.5967 197.163C86.052 197.163 87.234 195.981 87.234 194.524C87.234 193.067 86.052 191.886 84.5967 191.886C83.1375 191.886 81.9574 193.067 81.9574 194.524C81.9574 195.981 83.1375 197.163 84.5967 197.163Z" fill="white"/>
<path d="M98.226 198.043C99.9265 198.043 101.305 196.664 101.305 194.964C101.305 193.265 99.9265 191.886 98.226 191.886C96.5274 191.886 95.1489 193.265 95.1489 194.964C95.1489 196.664 96.5274 198.043 98.226 198.043Z" fill="white"/>
<path d="M112.297 198.043C113.997 198.043 115.376 196.467 115.376 194.524C115.376 192.581 113.997 191.007 112.297 191.007C110.597 191.007 109.22 192.581 109.22 194.524C109.22 196.467 110.597 198.043 112.297 198.043Z" fill="white"/>
<path d="M125.93 198.043C127.871 198.043 129.447 196.466 129.447 194.524C129.447 192.581 127.871 191.007 125.93 191.007C123.987 191.007 122.411 192.581 122.411 194.524C122.411 196.466 123.987 198.043 125.93 198.043Z" fill="white"/>
<path d="M139.999 198.043C141.943 198.043 143.518 196.467 143.518 194.524C143.518 192.582 141.943 191.007 139.999 191.007C138.058 191.007 136.482 192.582 136.482 194.524C136.482 196.467 138.058 198.043 139.999 198.043Z" fill="white"/>
<path d="M153.631 198.043C155.819 198.043 157.589 196.466 157.589 194.524C157.589 192.581 155.819 191.007 153.631 191.007C151.445 191.007 149.674 192.581 149.674 194.524C149.674 196.466 151.445 198.043 153.631 198.043Z" fill="white"/>
<path d="M167.262 198.043C169.207 198.043 170.78 196.467 170.78 194.524C170.78 192.581 169.207 191.007 167.262 191.007C165.32 191.007 163.745 192.581 163.745 194.524C163.745 196.467 165.32 198.043 167.262 198.043Z" fill="white"/>
<path d="M180.894 198.043C182.595 198.043 183.972 196.664 183.972 194.964C183.972 193.263 182.595 191.886 180.894 191.886C179.193 191.886 177.816 193.263 177.816 194.964C177.816 196.664 179.193 198.043 180.894 198.043Z" fill="white"/>
<path d="M194.526 197.163C195.98 197.163 197.163 195.982 197.163 194.525C197.163 193.069 195.98 191.886 194.526 191.886C193.068 191.886 191.886 193.069 191.886 194.525C191.886 195.982 193.068 197.163 194.526 197.163Z" fill="white"/>
<path d="M208.597 197.163C209.568 197.163 210.355 196.178 210.355 194.964C210.355 193.75 209.568 192.766 208.597 192.766C207.625 192.766 206.837 193.75 206.837 194.964C206.837 196.178 207.625 197.163 208.597 197.163Z" fill="white"/>
<path d="M222.227 196.284C222.955 196.284 223.546 195.497 223.546 194.525C223.546 193.555 222.955 192.766 222.227 192.766C221.498 192.766 220.908 193.555 220.908 194.525C220.908 195.497 221.498 196.284 222.227 196.284Z" fill="white"/>
<path d="M235.857 195.404C236.345 195.404 236.738 195.01 236.738 194.524C236.738 194.038 236.345 193.645 235.857 193.645C235.373 193.645 234.979 194.038 234.979 194.524C234.979 195.01 235.373 195.404 235.857 195.404Z" fill="white"/>
<path d="M249.49 195.404C249.733 195.404 249.929 195.208 249.929 194.964C249.929 194.721 249.733 194.525 249.49 194.525C249.248 194.525 249.05 194.721 249.05 194.964C249.05 195.208 249.248 195.404 249.49 195.404Z" fill="white"/>
<path d="M43.7015 209.475C43.9441 209.475 44.1419 209.082 44.1419 208.594C44.1419 208.109 43.9441 207.716 43.7015 207.716C43.4602 207.716 43.2625 208.109 43.2625 208.594C43.2625 209.082 43.4602 209.475 43.7015 209.475Z" fill="white"/>
<path d="M57.3334 209.475C57.8194 209.475 58.2128 208.885 58.2128 208.155C58.2128 207.428 57.8194 206.837 57.3334 206.837C56.8489 206.837 56.454 207.428 56.454 208.155C56.454 208.885 56.8489 209.475 57.3334 209.475Z" fill="white"/>
<path d="M71.4043 210.355C72.3775 210.355 73.1631 209.565 73.1631 208.595C73.1631 207.624 72.3775 206.837 71.4043 206.837C70.433 206.837 69.6454 207.624 69.6454 208.595C69.6454 209.565 70.433 210.355 71.4043 210.355Z" fill="white"/>
<path d="M85.0374 210.355C86.2489 210.355 87.234 209.369 87.234 208.155C87.234 206.941 86.2489 205.958 85.0374 205.958C83.8219 205.958 82.8368 206.941 82.8368 208.155C82.8368 209.369 83.8219 210.355 85.0374 210.355Z" fill="white"/>
<path d="M98.6656 211.234C100.124 211.234 101.305 210.053 101.305 208.595C101.305 207.138 100.124 205.958 98.6656 205.958C97.2093 205.958 96.0283 207.138 96.0283 208.595C96.0283 210.053 97.2093 211.234 98.6656 211.234Z" fill="white"/>
<path d="M112.297 211.234C113.997 211.234 115.376 210.052 115.376 208.595C115.376 207.138 113.997 205.958 112.297 205.958C110.597 205.958 109.22 207.138 109.22 208.595C109.22 210.052 110.597 211.234 112.297 211.234Z" fill="white"/>
<path d="M126.37 211.234C128.067 211.234 129.447 209.855 129.447 208.155C129.447 206.455 128.067 205.078 126.37 205.078C124.668 205.078 123.291 206.455 123.291 208.155C123.291 209.855 124.668 211.234 126.37 211.234Z" fill="white"/>
<path d="M139.559 211.234C141.26 211.234 142.638 209.855 142.638 208.155C142.638 206.457 141.26 205.078 139.559 205.078C137.859 205.078 136.482 206.457 136.482 208.155C136.482 209.855 137.859 211.234 139.559 211.234Z" fill="white"/>
<path d="M153.631 211.234C155.331 211.234 156.709 209.855 156.709 208.155C156.709 206.455 155.331 205.078 153.631 205.078C151.931 205.078 150.553 206.455 150.553 208.155C150.553 209.855 151.931 211.234 153.631 211.234Z" fill="white"/>
<path d="M167.262 211.234C168.72 211.234 169.901 210.053 169.901 208.596C169.901 207.138 168.72 205.958 167.262 205.958C165.805 205.958 164.624 207.138 164.624 208.596C164.624 210.053 165.805 211.234 167.262 211.234Z" fill="white"/>
<path d="M181.333 211.234C182.792 211.234 183.972 210.053 183.972 208.596C183.972 207.139 182.792 205.958 181.333 205.958C179.877 205.958 178.695 207.139 178.695 208.596C178.695 210.053 179.877 211.234 181.333 211.234Z" fill="white"/>
<path d="M194.967 210.355C196.179 210.355 197.163 209.371 197.163 208.156C197.163 206.942 196.179 205.958 194.967 205.958C193.75 205.958 192.766 206.942 192.766 208.156C192.766 209.371 193.75 210.355 194.967 210.355Z" fill="white"/>
<path d="M208.597 210.355C209.568 210.355 210.355 209.567 210.355 208.596C210.355 207.625 209.568 206.837 208.597 206.837C207.623 206.837 206.837 207.625 206.837 208.596C206.837 209.567 207.623 210.355 208.597 210.355Z" fill="white"/>
<path d="M222.227 209.475C222.955 209.475 223.546 208.884 223.546 208.156C223.546 207.428 222.955 206.837 222.227 206.837C221.497 206.837 220.908 207.428 220.908 208.156C220.908 208.884 221.497 209.475 222.227 209.475Z" fill="white"/>
<path d="M235.856 209.475C236.344 209.475 236.738 209.081 236.738 208.594C236.738 208.108 236.344 207.716 235.856 207.716C235.372 207.716 234.979 208.108 234.979 208.594C234.979 209.081 235.372 209.475 235.856 209.475Z" fill="white"/>
<path d="M43.7022 222.667C43.9444 222.667 44.1419 222.469 44.1419 222.227C44.1419 221.985 43.9444 221.787 43.7022 221.787C43.46 221.787 43.2625 221.985 43.2625 222.227C43.2625 222.469 43.46 222.667 43.7022 222.667Z" fill="white"/>
<path d="M57.3322 222.667C57.8186 222.667 58.2128 222.47 58.2128 222.226C58.2128 221.984 57.8186 221.787 57.3322 221.787C56.8482 221.787 56.454 221.984 56.454 222.226C56.454 222.47 56.8482 222.667 57.3322 222.667Z" fill="white"/>
<path d="M70.9634 223.546C71.6931 223.546 72.2837 222.955 72.2837 222.226C72.2837 221.498 71.6931 220.908 70.9634 220.908C70.2338 220.908 69.6454 221.498 69.6454 222.226C69.6454 222.955 70.2338 223.546 70.9634 223.546Z" fill="white"/>
<path d="M85.0371 223.546C85.7649 223.546 86.3546 222.955 86.3546 222.226C86.3546 221.497 85.7649 220.908 85.0371 220.908C84.3061 220.908 83.7163 221.497 83.7163 222.226C83.7163 222.955 84.3061 223.546 85.0371 223.546Z" fill="white"/>
<path d="M98.6666 224.425C99.6375 224.425 100.425 223.441 100.425 222.227C100.425 221.013 99.6375 220.028 98.6666 220.028C97.6956 220.028 96.9077 221.013 96.9077 222.227C96.9077 223.441 97.6956 224.425 98.6666 224.425Z" fill="white"/>
<path d="M112.297 224.425C113.513 224.425 114.496 223.441 114.496 222.227C114.496 221.012 113.513 220.028 112.297 220.028C111.083 220.028 110.099 221.012 110.099 222.227C110.099 223.441 111.083 224.425 112.297 224.425Z" fill="white"/>
<path d="M126.37 224.425C127.583 224.425 128.567 223.441 128.567 222.227C128.567 221.013 127.583 220.028 126.37 220.028C125.154 220.028 124.17 221.013 124.17 222.227C124.17 223.441 125.154 224.425 126.37 224.425Z" fill="white"/>
<path d="M140 224.425C141.458 224.425 142.638 223.441 142.638 222.226C142.638 221.013 141.458 220.028 140 220.028C138.542 220.028 137.362 221.013 137.362 222.226C137.362 223.441 138.542 224.425 140 224.425Z" fill="white"/>
<path d="M153.63 224.425C154.845 224.425 155.83 223.441 155.83 222.227C155.83 221.013 154.845 220.028 153.63 220.028C152.417 220.028 151.433 221.013 151.433 222.227C151.433 223.441 152.417 224.425 153.63 224.425Z" fill="white"/>
<path d="M167.702 224.425C168.916 224.425 169.901 223.441 169.901 222.227C169.901 221.014 168.916 220.028 167.702 220.028C166.49 220.028 165.504 221.014 165.504 222.227C165.504 223.441 166.49 224.425 167.702 224.425Z" fill="white"/>
<path d="M181.333 224.425C182.305 224.425 183.092 223.44 183.092 222.226C183.092 221.012 182.305 220.028 181.333 220.028C180.363 220.028 179.574 221.012 179.574 222.226C179.574 223.44 180.363 224.425 181.333 224.425Z" fill="white"/>
<path d="M194.966 223.546C195.694 223.546 196.284 222.956 196.284 222.227C196.284 221.499 195.694 220.908 194.966 220.908C194.237 220.908 193.645 221.499 193.645 222.227C193.645 222.956 194.237 223.546 194.966 223.546Z" fill="white"/>
<path d="M208.596 223.546C209.082 223.546 209.475 222.955 209.475 222.227C209.475 221.499 209.082 220.908 208.596 220.908C208.111 220.908 207.716 221.499 207.716 222.227C207.716 222.955 208.111 223.546 208.596 223.546Z" fill="white"/>
<path d="M222.228 222.667C222.469 222.667 222.667 222.469 222.667 222.226C222.667 221.984 222.469 221.787 222.228 221.787C221.984 221.787 221.787 221.984 221.787 222.226C221.787 222.469 221.984 222.667 222.228 222.667Z" fill="white"/>
<path d="M236.295 222.667C236.539 222.667 236.738 222.471 236.738 222.227C236.738 221.983 236.539 221.787 236.295 221.787C236.054 221.787 235.858 221.983 235.858 222.227C235.858 222.471 236.054 222.667 236.295 222.667Z" fill="white"/>
<path d="M70.9646 236.738C71.2076 236.738 71.4043 236.342 71.4043 235.857C71.4043 235.372 71.2076 234.979 70.9646 234.979C70.723 234.979 70.5249 235.372 70.5249 235.857C70.5249 236.342 70.723 236.738 70.9646 236.738Z" fill="white"/>
<path d="M84.5975 236.738C85.083 236.738 85.4752 236.344 85.4752 235.857C85.4752 235.372 85.083 234.979 84.5975 234.979C84.1102 234.979 83.7163 235.372 83.7163 235.857C83.7163 236.344 84.1102 236.738 84.5975 236.738Z" fill="white"/>
<path d="M98.2259 237.617C98.9542 237.617 99.546 237.025 99.546 236.297C99.546 235.569 98.9542 234.979 98.2259 234.979C97.4975 234.979 96.9077 235.569 96.9077 236.297C96.9077 237.025 97.4975 237.617 98.2259 237.617Z" fill="white"/>
<path d="M112.297 237.617C113.026 237.617 113.617 236.829 113.617 235.857C113.617 234.887 113.026 234.099 112.297 234.099C111.57 234.099 110.979 234.887 110.979 235.857C110.979 236.829 111.57 237.617 112.297 237.617Z" fill="white"/>
<path d="M125.931 237.617C126.9 237.617 127.688 236.831 127.688 235.858C127.688 234.887 126.9 234.099 125.931 234.099C124.958 234.099 124.17 234.887 124.17 235.858C124.17 236.831 124.958 237.617 125.931 237.617Z" fill="white"/>
<path d="M140 237.617C140.972 237.617 141.759 236.829 141.759 235.857C141.759 234.886 140.972 234.099 140 234.099C139.028 234.099 138.241 234.886 138.241 235.857C138.241 236.829 139.028 237.617 140 237.617Z" fill="white"/>
<path d="M153.63 237.617C154.359 237.617 154.95 236.829 154.95 235.858C154.95 234.887 154.359 234.099 153.63 234.099C152.902 234.099 152.312 234.887 152.312 235.858C152.312 236.829 152.902 237.617 153.63 237.617Z" fill="white"/>
<path d="M167.261 237.617C168.233 237.617 169.021 236.829 169.021 235.857C169.021 234.887 168.233 234.099 167.261 234.099C166.292 234.099 165.504 234.887 165.504 235.857C165.504 236.829 166.292 237.617 167.261 237.617Z" fill="white"/>
<path d="M180.893 237.617C181.622 237.617 182.213 237.027 182.213 236.298C182.213 235.571 181.622 234.979 180.893 234.979C180.163 234.979 179.574 235.571 179.574 236.298C179.574 237.027 180.163 237.617 180.893 237.617Z" fill="white"/>
<path d="M194.966 236.738C195.692 236.738 196.284 236.343 196.284 235.857C196.284 235.372 195.692 234.979 194.966 234.979C194.235 234.979 193.645 235.372 193.645 235.857C193.645 236.343 194.235 236.738 194.966 236.738Z" fill="white"/>
<path d="M208.597 236.738C209.083 236.738 209.475 236.343 209.475 235.857C209.475 235.37 209.083 234.979 208.597 234.979C208.11 234.979 207.716 235.37 207.716 235.857C207.716 236.343 208.11 236.738 208.597 236.738Z" fill="white"/>
<path d="M85.0375 249.929C85.2808 249.929 85.4751 249.731 85.4751 249.488C85.4751 249.246 85.2808 249.05 85.0375 249.05C84.792 249.05 84.5957 249.246 84.5957 249.488C84.5957 249.731 84.792 249.929 85.0375 249.929Z" fill="white"/>
<path d="M98.6679 250.809C99.1544 250.809 99.5461 250.415 99.5461 249.929C99.5461 249.446 99.1544 249.05 98.6679 249.05C98.1839 249.05 97.7872 249.446 97.7872 249.929C97.7872 250.415 98.1839 250.809 98.6679 250.809Z" fill="white"/>
<path d="M112.738 250.809C113.223 250.809 113.617 250.414 113.617 249.928C113.617 249.442 113.223 249.05 112.738 249.05C112.252 249.05 111.858 249.442 111.858 249.928C111.858 250.414 112.252 250.809 112.738 250.809Z" fill="white"/>
<path d="M125.931 250.809C126.416 250.809 126.809 250.415 126.809 249.929C126.809 249.444 126.416 249.05 125.931 249.05C125.444 249.05 125.05 249.444 125.05 249.929C125.05 250.415 125.444 250.809 125.931 250.809Z" fill="white"/>
<path d="M140 250.809C140.485 250.809 140.879 250.414 140.879 249.928C140.879 249.443 140.485 249.05 140 249.05C139.515 249.05 139.121 249.443 139.121 249.928C139.121 250.414 139.515 250.809 140 250.809Z" fill="white"/>
<path d="M153.63 250.809C154.357 250.809 154.95 250.415 154.95 249.929C154.95 249.444 154.357 249.05 153.63 249.05C152.902 249.05 152.312 249.444 152.312 249.929C152.312 250.415 152.902 250.809 153.63 250.809Z" fill="white"/>
<path d="M167.261 250.809C167.747 250.809 168.142 250.414 168.142 249.928C168.142 249.444 167.747 249.05 167.261 249.05C166.775 249.05 166.383 249.444 166.383 249.928C166.383 250.414 166.775 250.809 167.261 250.809Z" fill="white"/>
<path d="M181.333 250.809C181.82 250.809 182.213 250.416 182.213 249.929C182.213 249.442 181.82 249.05 181.333 249.05C180.846 249.05 180.454 249.442 180.454 249.929C180.454 250.416 180.846 250.809 181.333 250.809Z" fill="white"/>
<path d="M194.966 249.929C195.21 249.929 195.404 249.733 195.404 249.489C195.404 249.248 195.21 249.05 194.966 249.05C194.723 249.05 194.525 249.248 194.525 249.489C194.525 249.733 194.723 249.929 194.966 249.929Z" fill="white"/>
</g>
</svg>
